<?xml version="1.0" standalone="no"?>
<!DOCTYPE svg PUBLIC "-//W3C//DTD SVG 20010904//EN"
 "http://www.w3.org/TR/2001/REC-SVG-20010904/DTD/svg10.dtd">
<svg version="1.0" xmlns="http://www.w3.org/2000/svg"
 width="500.000000pt" height="500.000000pt" viewBox="0 0 500.000000 500.000000"
 preserveAspectRatio="xMidYMid meet">

<g transform="translate(0.000000,500.000000) scale(0.100000,-0.100000)"
fill="#000000" stroke="none">
<path d="M3025 3350 c29 -113 134 -245 260 -327 38 -26 107 -71 153 -101 48
-31 100 -75 123 -104 21 -27 39 -47 39 -44 0 4 -13 33 -29 65 -46 89 -119 161
-261 256 -155 103 -222 162 -261 229 -17 28 -28 40 -24 26z"/>
<path d="M2640 3230 c23 -45 155 -165 218 -198 84 -45 181 -77 341 -113 214
-48 285 -76 365 -148 21 -18 16 -9 -14 28 -105 129 -225 188 -540 266 -165 41
-264 84 -334 147 -38 33 -46 37 -36 18z"/>
<path d="M2270 2935 c0 -12 139 -93 202 -118 83 -33 216 -57 311 -57 39 0 154
9 256 21 249 28 391 24 476 -14 91 -41 33 -1 -70 48 -49 24 -122 50 -162 59
-86 19 -323 22 -440 5 -43 -7 -145 -12 -228 -13 -157 -1 -219 10 -307 55 -21
11 -38 17 -38 14z"/>
<path d="M3049 2658 l-36 -93 -57 -6 c-54 -6 -91 -23 -81 -39 2 -4 25 -1 50 7
75 25 78 19 39 -103 -38 -119 -39 -127 -21 -122 6 3 28 54 48 114 32 98 38
109 59 109 22 0 25 -7 37 -64 20 -96 56 -169 88 -177 19 -5 32 -1 46 12 21 22
79 157 79 185 0 24 -19 25 -26 2 -4 -10 -22 -53 -42 -96 -40 -88 -44 -87 -67
23 -22 103 -21 110 14 110 44 0 47 18 4 22 l-38 3 -10 100 c-9 88 -12 100 -30
103 -17 2 -26 -13 -56 -90z m17 -105 c-2 -3 -9 -2 -15 1 -6 4 -6 17 2 39 l12
32 3 -33 c2 -19 1 -36 -2 -39z"/>
<path d="M2223 2727 c-31 -13 -51 -62 -59 -139 l-6 -65 -53 -28 -52 -28 -21
21 c-13 13 -35 22 -52 22 l-30 0 37 57 c23 36 36 70 37 92 1 33 -1 36 -30 39
-27 3 -38 -5 -84 -55 l-53 -58 6 63 c7 61 6 62 -17 62 -21 0 -26 -7 -36 -52
-6 -29 -14 -107 -17 -173 -5 -110 -8 -122 -30 -143 -31 -28 -26 -43 20 -61 34
-13 41 -12 102 14 64 28 139 91 151 127 3 10 23 26 45 34 21 9 39 20 39 25 0
5 8 9 19 9 15 0 19 -11 24 -65 10 -101 39 -145 97 -145 53 0 159 84 136 108
-3 2 -28 -16 -57 -42 -78 -70 -87 -64 -96 67 l-6 77 39 1 c21 1 50 5 64 9 22
7 20 8 -15 9 -83 2 -85 5 -85 85 0 113 3 117 64 111 36 -5 47 -3 35 4 -28 18
-93 28 -116 18z m-233 -57 c0 -19 -48 -104 -89 -159 -47 -62 -53 -48 -16 35
36 82 105 163 105 124z m5 -205 c0 -14 -15 -25 -59 -42 -33 -12 -62 -21 -64
-18 -8 7 29 45 63 67 36 22 60 20 60 -7z m-41 -86 c-32 -34 -100 -73 -107 -61
-12 20 15 48 64 69 72 30 78 29 43 -8z"/>
<path d="M3367 2733 c-4 -3 -7 -55 -7 -114 0 -118 -4 -140 -26 -132 -8 3 -14
0 -14 -7 0 -6 9 -14 20 -17 16 -4 20 -14 20 -53 0 -82 9 -110 36 -110 22 0 24
4 24 43 l0 42 26 -33 c53 -66 111 -62 144 10 21 45 26 88 11 88 -5 0 -12 -12
-16 -27 -11 -45 -35 -91 -51 -97 -10 -4 -28 14 -54 56 -22 33 -40 65 -40 69 0
4 9 11 21 14 29 10 87 63 105 96 7 15 14 44 14 63 0 36 8 42 93 60 32 7 31 12
12 -87 -37 -195 -2 -333 80 -313 36 9 84 97 109 199 13 56 -12 24 -39 -48 -26
-72 -58 -125 -75 -125 -17 0 -21 79 -10 199 17 185 10 171 81 171 44 0 60 3
57 13 -3 6 -20 13 -39 14 -19 2 -66 8 -106 14 -61 10 -79 9 -126 -6 -43 -13
-59 -15 -76 -5 -27 14 -58 5 -92 -27 l-27 -25 -7 41 c-5 30 -12 41 -24 41 -10
0 -21 -3 -24 -7z m162 -78 c14 -50 -4 -109 -46 -145 -49 -43 -63 -40 -63 15 0
52 21 109 52 142 30 32 45 29 57 -12z"/>
<path d="M1500 2715 c-26 -15 -21 -19 19 -15 l24 2 -6 -99 c-4 -54 -7 -137 -7
-185 l0 -88 -30 0 c-16 0 -30 -4 -30 -10 0 -6 38 -10 95 -10 78 0 95 3 95 15
0 11 -11 15 -36 15 l-36 0 7 83 c3 45 7 126 8 179 l2 98 30 7 c29 7 29 7 -15
14 -67 11 -92 10 -120 -6z"/>
<path d="M2455 2683 c-12 -48 -24 -253 -18 -304 5 -39 10 -49 24 -49 20 0 24
12 34 98 8 69 40 171 64 202 l20 25 11 -30 c6 -17 15 -83 19 -147 4 -65 10
-121 14 -124 3 -4 12 -4 20 -1 10 4 16 30 20 86 6 96 45 195 74 189 16 -3 19
-20 24 -148 3 -80 9 -153 13 -162 9 -20 31 -29 50 -22 23 9 96 154 77 154 -5
0 -14 -15 -20 -32 -15 -42 -58 -108 -71 -108 -6 0 -10 59 -10 153 0 122 -3
157 -16 175 -28 41 -82 24 -113 -36 l-19 -37 -7 30 c-20 84 -73 101 -118 38
l-26 -36 6 56 c6 56 5 57 -20 57 -19 0 -26 -7 -32 -27z"/>
<path d="M1349 2653 c-6 -16 -27 -84 -47 -152 -40 -136 -45 -136 -57 -3 -15
177 -14 172 -41 172 -27 0 -27 -1 -25 -130 3 -152 52 -283 92 -243 5 5 23 58
39 118 27 99 40 135 40 107 0 -6 12 -24 26 -41 19 -24 34 -31 60 -31 19 0 34
5 34 10 0 6 -11 10 -25 10 -34 0 -55 53 -55 141 0 55 -3 69 -15 69 -9 0 -20
-12 -26 -27z"/>
<path d="M1237 2183 c-4 -3 -7 -26 -7 -50 0 -42 1 -44 28 -41 24 3 27 7 28 43
1 38 -8 55 -32 55 -6 0 -14 -3 -17 -7z m41 -25 c-6 -18 -28 -21 -28 -4 0 9 7
16 16 16 9 0 14 -5 12 -12z m0 -40 c-6 -18 -28 -21 -28 -4 0 9 7 16 16 16 9 0
14 -5 12 -12z"/>
<path d="M1331 2138 c1 -29 4 -42 6 -30 l5 24 25 -24 c22 -19 24 -20 15 -3 -6
12 -7 26 -1 37 10 19 -12 48 -37 48 -10 0 -14 -13 -13 -52z m39 17 c0 -8 -7
-15 -15 -15 -8 0 -15 7 -15 15 0 8 7 15 15 15 8 0 15 -7 15 -15z"/>
<path d="M1598 2148 c-3 -24 -1 -47 3 -52 5 -6 9 13 9 42 0 63 -6 68 -12 10z"/>
<path d="M1650 2141 c0 -47 2 -51 24 -51 26 0 56 23 56 44 0 21 -24 45 -52 52
-28 6 -28 6 -28 -45z m58 0 c4 -23 -11 -41 -35 -41 -8 0 -13 14 -13 36 0 31 3
35 23 32 14 -2 23 -11 25 -27z"/>
<path d="M1811 2138 c1 -29 4 -43 6 -30 3 14 12 22 26 23 l22 0 -22 9 c-31 12
-29 30 2 30 14 0 25 5 25 10 0 6 -13 10 -30 10 -30 0 -30 -1 -29 -52z"/>
<path d="M2009 2174 c-11 -13 -8 -19 17 -39 25 -20 27 -24 12 -30 -9 -4 -22
-4 -28 0 -5 3 -10 1 -10 -4 0 -18 50 -13 57 6 4 11 -3 24 -23 40 l-29 23 30 0
c23 0 27 3 15 10 -20 13 -25 12 -41 -6z"/>
<path d="M2093 2140 c0 -30 2 -45 4 -32 3 17 11 22 34 22 17 0 28 -4 25 -8 -2
-4 -1 -14 5 -22 6 -10 9 0 9 33 0 26 -5 47 -11 47 -5 0 -8 -4 -5 -8 2 -4 1
-14 -3 -21 -12 -19 -49 -4 -54 22 -2 12 -4 -3 -4 -33z"/>
<path d="M2265 2170 c-40 -45 20 -105 65 -65 26 24 25 50 -2 69 -29 21 -41 20
-63 -4z m65 -35 c0 -24 -21 -38 -44 -29 -24 9 -27 33 -5 55 16 16 23 18 35 8
8 -6 14 -22 14 -34z"/>
<path d="M2450 2153 l0 -37 -35 34 -35 34 2 -50 c1 -36 2 -40 5 -16 2 17 8 32
13 32 5 0 20 -15 34 -32 l26 -33 0 53 c0 28 -2 52 -5 52 -3 0 -5 -17 -5 -37z"/>
<path d="M1437 2145 c-20 -42 -22 -66 -4 -41 12 17 47 14 47 -5 0 -5 5 -9 10
-9 10 0 -13 67 -29 83 -4 4 -15 -9 -24 -28z m28 -5 c3 -5 1 -10 -4 -10 -6 0
-11 5 -11 10 0 6 2 10 4 10 3 0 8 -4 11 -10z"/>
<path d="M1532 2134 c1 -36 2 -40 5 -16 5 35 17 41 32 15 5 -10 12 -15 15 -12
3 3 -8 18 -24 34 l-30 29 2 -50z"/>
<path d="M1912 2143 c-27 -53 -28 -61 -1 -37 23 20 27 20 46 -5 17 -23 15 -3
-6 44 l-18 40 -21 -42z m28 -3 c0 -5 -4 -10 -10 -10 -5 0 -10 5 -10 10 0 6 5
10 10 10 6 0 10 -4 10 -10z"/>
<path d="M2200 2135 c0 -25 5 -45 10 -45 6 0 10 20 10 45 0 25 -4 45 -10 45
-5 0 -10 -20 -10 -45z"/>
</g>
</svg>
